Coordinates
version=1
nRows=54
nColumns=12
inDegrees=yes

Units are S.I. units (second, meters, Newtons, ...)
Angles are in degrees

endheader
time	SC_y	SC_z	SC_x	AC_y	AC_z	AC_x	GH_y	GH_z	GH_yy	EL_x	PS_y
       0.0              -36.44          2.912          58.79           68.1          -10.3           7.88         -103.6         -9.686          59.05          102.1          97.19
  0.003515              -36.44          2.913          58.79          68.09         -10.29          7.877         -103.6         -9.686          59.03          102.0          97.18
  0.007029              -36.44          2.913          58.78          68.09         -10.29          7.873         -103.6         -9.686          59.01          102.0          97.18
   0.01054              -36.44          2.914          58.77          68.09         -10.29          7.869         -103.5         -9.686          58.99          102.0          97.17
   0.01406              -36.44          2.915          58.77          68.08         -10.29          7.865         -103.5         -9.686          58.96          102.0          97.16
   0.01757              -36.44          2.915          58.76          68.08         -10.28          7.861         -103.5         -9.686          58.94          102.0          97.15
   0.02109              -36.44          2.916          58.75          68.07         -10.28          7.856         -103.5         -9.686          58.91          102.0          97.14
    0.0246              -36.45          2.917          58.74          68.07         -10.28          7.851         -103.5         -9.686          58.88          102.0          97.13
   0.02812              -36.45          2.918          58.73          68.06         -10.27          7.846         -103.5         -9.686          58.85          102.0          97.11
   0.03163              -36.45          2.919          58.72          68.05         -10.27           7.84         -103.5         -9.686          58.82          102.0           97.1
   0.03515              -36.45           2.92          58.71          68.05         -10.27          7.834         -103.4         -9.687          58.78          102.0          97.09
   0.03866              -36.45          2.921           58.7          68.04         -10.26          7.828         -103.4         -9.687          58.74          102.0          97.07
   0.04218              -36.45          2.922          58.69          68.03         -10.26          7.821         -103.4         -9.687           58.7          101.9          97.06
   0.04569              -36.45          2.923          58.68          68.02         -10.25          7.813         -103.4         -9.687          58.66          101.9          97.04
   0.04921              -36.45          2.925          58.66          68.02         -10.24          7.805         -103.3         -9.687          58.61          101.9          97.02
   0.05272              -36.46          2.926          58.65          68.01         -10.24          7.795         -103.3         -9.687          58.56          101.9           97.0
   0.05623              -36.46          2.928          58.63           68.0         -10.23          7.786         -103.3         -9.687           58.5          101.9          96.98
   0.05975              -36.46          2.929          58.61          67.98         -10.22          7.775         -103.3         -9.687          58.44          101.9          96.95
   0.06326              -36.46          2.931          58.59          67.97         -10.22          7.763         -103.2         -9.688          58.37          101.8          96.93
   0.06678              -36.46          2.933          58.57          67.96         -10.21          7.751         -103.2         -9.688           58.3          101.8           96.9
   0.07029              -36.47          2.936          58.54          67.94          -10.2          7.737         -103.1         -9.688          58.22          101.8          96.87
   0.07381              -36.47          2.938          58.52          67.93         -10.19          7.721         -103.1         -9.688          58.13          101.8          96.83
   0.07732              -36.47          2.941          58.49          67.91         -10.18          7.704         -103.0         -9.689          58.03          101.7           96.8
   0.08084              -36.47          2.944          58.45          67.89         -10.16          7.685         -103.0         -9.689          57.92          101.7          96.75
   0.08435              -36.48          2.947          58.42          67.86         -10.15          7.664         -102.9         -9.689           57.8          101.6          96.71
   0.08787              -36.48          2.951          58.37          67.84         -10.13          7.641         -102.8          -9.69          57.66          101.6          96.65
   0.09138              -36.49          2.955          58.33          67.81         -10.11          7.615         -102.8          -9.69          57.51          101.5          96.59
    0.0949              -36.49           2.96          58.28          67.78         -10.09          7.585         -102.7          -9.69          57.34          101.5          96.53
   0.09841               -36.5          2.966          58.22          67.74         -10.07          7.552         -102.6         -9.691          57.14          101.4          96.45
    0.1019              -36.51          2.972          58.15           67.7         -10.05          7.514         -102.5         -9.692          56.92          101.4          96.37
    0.1054              -36.51          2.979          58.08          67.66         -10.02          7.471         -102.3         -9.692          56.67          101.3          96.27
     0.109              -36.52          2.987          57.99           67.6         -9.982          7.421         -102.2         -9.693          56.38          101.2          96.16
    0.1125              -36.53          2.996          57.89          67.54         -9.943          7.364         -102.0         -9.694          56.05          101.1          96.03
     0.116              -36.54          3.007          57.77          67.47         -9.897          7.297         -101.8         -9.695          55.67          100.9          95.88
    0.1195              -36.56          3.019          57.64          67.38         -9.844          7.219         -101.6         -9.696          55.21          100.8           95.7
     0.123              -36.57          3.034          57.48          67.29         -9.781          7.128         -101.3         -9.698          54.68          100.6           95.5
    0.1265              -36.59          3.052          57.29          67.17         -9.706          7.019         -100.9         -9.699          54.05          100.4          95.25
      0.13              -36.62          3.073          57.06          67.03         -9.616          6.888         -100.5         -9.701          53.29          100.2          94.96
    0.1336              -36.64          3.099          56.78          66.86         -9.508           6.73         -100.1         -9.704          52.37          99.85           94.6
    0.1371              -36.68           3.13          56.44          66.65         -9.375          6.536         -99.46         -9.707          51.25          99.48          94.17
    0.1406              -36.72          3.169          56.03          66.39         -9.212          6.298         -98.73         -9.711          49.86          99.03          93.63
    0.1441              -36.77          3.217          55.51          66.07         -9.008          6.001         -97.82         -9.715          48.14          98.46          92.96
    0.1476              -36.84          3.278          54.85          65.66         -8.751          5.626         -96.67         -9.721          45.96          97.74          92.12
    0.1511              -36.92          3.355          54.02          65.15         -8.424           5.15         -95.21         -9.729           43.2          96.83          91.05
    0.1546              -37.03          3.454          52.95          64.49         -8.006           4.54         -93.34         -9.738          39.66          95.66          89.67
    0.1582              -37.17           3.58          51.58          63.65         -7.469          3.758         -90.94          -9.75          35.12          94.17          87.91
    0.1617              -37.34          3.742          49.84          62.57         -6.784          2.759         -87.88         -9.766          29.32          92.25          85.66
    0.1652              -37.57          3.946          47.64          61.22         -5.922          1.503         -84.02         -9.786          22.03          89.85          82.84
    0.1687              -37.84          4.194          44.96          59.56         -4.872       -0.02808         -79.33          -9.81          13.14          86.92          79.39
    0.1722              -38.15          4.481          41.86          57.65         -3.655         -1.803         -73.89         -9.837          2.842          83.52           75.4
    0.1757              -38.49          4.793           38.5          55.57         -2.337         -3.724          -68.0         -9.867         -8.311          79.84          71.07
    0.1792              -38.83          5.104          35.14           53.5         -1.019         -5.645          -62.1         -9.897         -19.47          76.17          66.75
    0.1828              -39.14          5.392          32.04          51.59         0.1979          -7.42         -56.66         -9.925         -29.77          72.77          62.75
    0.1863              -39.41           5.64          29.36          49.93          1.248         -8.951         -51.97         -9.949         -38.65          69.84          59.31
